<svg height="100%" version="1.1" xmlns="http://www.w3.org/2000/svg" xmlns:xlink="http://www.w3.org/1999/xlink" x="0px" y="0px" viewBox="0 0 90 90" style="enable-background:new 0 0 90 90;" xml:space="preserve"><path fill-rule="evenodd" clip-rule="evenodd" fill="#302e2e" d="M44.83,0c0.85,0,2.12,1.49,2.87,1.2l2.27-0.92C50.81,0.36,51.91,2,52.68,1.8l2.36-0.66	c0.83,0.19,1.74,1.94,2.52,1.81l2.41-0.38c0.8,0.28,1.5,2.14,2.3,2.1l2.45-0.1c0.76,0.38,1.25,2.28,2.04,2.34l2.44,0.17	c0.72,0.46,0.98,2.42,1.76,2.56l2.4,0.44c0.66,0.54,0.71,2.51,1.46,2.75l2.34,0.72c0.59,0.6,0.41,2.58,1.14,2.89l2.24,0.98	c0.52,0.67,0.11,2.62,0.8,3.01l2.12,1.22c0.44,0.73-0.18,2.6,0.46,3.08l1.96,1.46c0.35,0.77-0.48,2.56,0.1,3.11l1.78,1.67	c0.26,0.8-0.76,2.5-0.25,3.1l1.58,1.87c0.17,0.83-1.06,2.39-0.6,3.05l1.36,2.04c0.08,0.84-1.31,2.26-0.95,2.96l1.1,2.19	c-0.02,0.85-1.56,2.09-1.28,2.84l0.85,2.29c-0.11,0.84-1.79,1.9-1.58,2.68l0.59,2.36c-0.22,0.82-1.99,1.69-1.88,2.47l0.3,2.42	c-0.31,0.8-2.16,1.45-2.15,2.23l0.02,2.45c-0.4,0.76-2.32,1.18-2.39,1.98l-0.24,2.44c-0.48,0.71-2.44,0.91-2.6,1.69l-0.5,2.39	c-0.56,0.65-2.53,0.64-2.78,1.38l-0.79,2.3c-0.62,0.58-2.59,0.34-2.92,1.06l-1.06,2.21c-0.68,0.5-2.6,0.05-3.02,0.72l-1.3,2.09	c-0.74,0.42-2.6-0.25-3.08,0.36l-1.51,1.91c-0.79,0.34-2.54-0.55-3.11,0.01l-1.73,1.75c-0.82,0.24-2.47-0.83-3.08-0.34l-1.91,1.52	c-0.84,0.16-2.36-1.12-3.02-0.7L47.76,90c-0.85,0.05-2.21-1.38-2.93-1.04L42.64,90c-0.85-0.05-2.04-1.62-2.78-1.36l-2.35,0.8	c-0.84-0.16-1.85-1.84-2.62-1.66l-2.38,0.52c-0.82-0.24-1.63-2.04-2.41-1.96l-2.44,0.25c-0.79-0.34-1.38-2.21-2.18-2.22l-2.45-0.02	c-0.74-0.42-1.12-2.35-1.9-2.45l-2.42-0.31c-0.68-0.5-0.84-2.46-1.62-2.65l-2.38-0.58c-0.62-0.56-0.56-2.54-1.3-2.83l-2.29-0.85	c-0.56-0.64-0.26-2.6-0.97-2.95l-2.18-1.12c-0.46-0.7,0.05-2.61-0.61-3.03l-2.04-1.34c-0.4-0.76,0.32-2.59-0.28-3.1l-1.87-1.57	c-0.31-0.8,0.62-2.53,0.08-3.11l-1.69-1.78c-0.22-0.82,0.9-2.45,0.43-3.08L0.5,51.63c-0.13-0.84,1.16-2.32,0.77-3.01L0,46.49	c-0.02-0.85,1.44-2.18,1.12-2.92l-0.98-2.24c0.07-0.84,1.67-1.99,1.44-2.76l-0.73-2.33c0.17-0.83,1.88-1.79,1.74-2.58l-0.46-2.4	c0.26-0.8,2.08-1.57,2.03-2.36l-0.18-2.44c0.35-0.77,2.24-1.32,2.28-2.11l0.1-2.45c0.43-0.73,2.38-1.06,2.51-1.82l0.38-2.42	c0.5-0.67,2.48-0.77,2.7-1.54l0.65-2.36c0.59-0.62,2.56-0.49,2.86-1.22l0.92-2.27c0.66-0.54,2.6-0.19,2.96-0.89l1.16-2.15	c0.72-0.47,2.6,0.1,3.06-0.55l1.4-2.02c0.76-0.38,2.57,0.4,3.1-0.19l1.63-1.82c0.8-0.28,2.51,0.7,3.1,0.16l1.82-1.63	c0.83-0.19,2.41,0.98,3.06,0.5l1.99-1.4c0.84-0.1,2.29,1.24,2.98,0.86L44.83,0z"></path><g>	<path fill-rule="evenodd" clip-rule="evenodd" fill="#FFFFFF" d="M45.18,4.96c0.56,0.05,1.19-0.19,1.81-0.42c0.88-0.32,1.72-0.64,2.75-0.51c1,0.11,1.83,0.63,2.67,1.14		c0.64,0.39,1.28,0.77,1.84,0.88l0.13,0.04c0.52,0.17,1.2,0.1,1.85,0.01c0.92-0.1,1.82-0.23,2.78,0.14		c0.95,0.34,1.64,1.05,2.34,1.72c0.52,0.52,1.06,1.06,1.58,1.28l0.11,0.06c0.48,0.29,1.14,0.36,1.79,0.43		c0.92,0.1,1.82,0.23,2.67,0.77c0.84,0.56,1.35,1.39,1.87,2.22c0.4,0.64,0.8,1.26,1.26,1.6l0.1,0.08c0.4,0.39,1.03,0.62,1.64,0.84		c0.88,0.32,1.72,0.63,2.44,1.39c0.68,0.74,1.01,1.65,1.32,2.59c0.24,0.71,0.48,1.41,0.86,1.85l0.08,0.1		c0.3,0.48,0.86,0.83,1.4,1.21c0.76,0.5,1.53,1.01,2.04,1.9c0.5,0.88,0.59,1.83,0.68,2.82c0.07,0.75,0.14,1.47,0.4,2l0.05,0.11		c0.18,0.52,0.64,1.01,1.11,1.49c0.63,0.68,1.26,1.34,1.56,2.32c0.29,0.96,0.15,1.94,0.01,2.9c-0.1,0.75-0.21,1.47-0.07,2.04		l0.02,0.13c0.06,0.55,0.39,1.13,0.74,1.71c0.46,0.81,0.93,1.58,0.99,2.62c0.06,1.01-0.3,1.9-0.67,2.82		c-0.27,0.69-0.55,1.39-0.55,1.97v0.14c-0.07,0.55,0.13,1.19,0.32,1.83c0.26,0.88,0.52,1.77,0.36,2.77c-0.17,1-0.75,1.79-1.31,2.6		c-0.42,0.62-0.86,1.24-0.99,1.78l-0.04,0.13c-0.19,0.52-0.17,1.19-0.11,1.85c0.06,0.93,0.1,1.83-0.3,2.78		c-0.4,0.93-1.14,1.57-1.85,2.22c-0.55,0.49-1.11,1-1.37,1.52l-0.07,0.11c-0.31,0.46-0.42,1.13-0.55,1.77		c-0.17,0.92-0.32,1.82-0.94,2.64c-0.59,0.81-1.45,1.26-2.32,1.74c-0.65,0.36-1.32,0.71-1.66,1.16l-0.1,0.1		c-0.42,0.38-0.68,1-0.94,1.6c-0.36,0.84-0.74,1.7-1.51,2.35c-0.76,0.65-1.71,0.9-2.65,1.16l0,0c-0.73,0.19-1.45,0.39-1.9,0.75		l-0.11,0.07c-0.49,0.27-0.88,0.81-1.28,1.34c-0.55,0.75-1.11,1.47-2.02,1.94c-0.9,0.46-1.88,0.49-2.86,0.51		c-0.75,0.02-1.49,0.05-2.02,0.29l-0.11,0.05c-0.55,0.15-1.06,0.58-1.56,1.01l0,0c-0.71,0.59-1.4,1.19-2.4,1.43		c-0.97,0.23-1.91,0.04-2.89-0.17c-0.74-0.15-1.45-0.3-2.03-0.19l-0.13,0.01c-0.55,0.02-1.15,0.33-1.74,0.63l0,0		C46.91,85.59,46.09,86,45.08,86s-1.89-0.42-2.78-0.82c-0.68-0.32-1.35-0.63-1.94-0.65l-0.14-0.01c-0.55-0.1-1.2,0.06-1.84,0.2		c-0.9,0.23-1.78,0.42-2.78,0.19c-0.99-0.23-1.74-0.84-2.52-1.45c-0.58-0.46-1.18-0.93-1.72-1.08l-0.13-0.05		c-0.5-0.23-1.18-0.23-1.84-0.23c-0.93,0-1.84,0-2.76-0.46c-0.9-0.46-1.5-1.22-2.12-1.97c-0.48-0.58-0.93-1.16-1.44-1.45l-0.1-0.07		c-0.43-0.33-1.09-0.49-1.74-0.65c-0.9-0.23-1.79-0.42-2.57-1.08l0,0c-0.76-0.65-1.19-1.53-1.6-2.42c-0.32-0.68-0.63-1.34-1.07-1.74		l-0.1-0.1c-0.36-0.43-0.95-0.74-1.53-1.02c-0.82-0.42-1.64-0.83-2.26-1.64c-0.59-0.81-0.81-1.77-1.01-2.72		c-0.15-0.74-0.31-1.45-0.63-1.94l-0.07-0.11c-0.24-0.49-0.75-0.93-1.26-1.37c-0.71-0.59-1.4-1.19-1.81-2.13		c-0.4-0.92-0.36-1.9-0.34-2.88c0.02-0.75,0.04-1.49-0.17-2.03l-0.04-0.11c-0.11-0.55-0.52-1.07-0.93-1.62l0,0		c-0.55-0.75-1.11-1.47-1.28-2.48c-0.17-1,0.08-1.94,0.33-2.88c0.19-0.73,0.38-1.45,0.31-2.03L5.2,47.07		c0.01-0.55-0.26-1.16-0.52-1.78l0,0c-0.36-0.84-0.74-1.7-0.68-2.71c0.06-1.01,0.52-1.87,0.99-2.73c0.36-0.67,0.71-1.32,0.76-1.89		l0.02-0.13c0.14-0.55,0.02-1.2-0.1-1.85c-0.17-0.92-0.32-1.81-0.02-2.79c0.29-0.96,0.94-1.7,1.58-2.44		c0.49-0.56,0.99-1.13,1.18-1.65l0.05-0.13c0.25-0.49,0.3-1.16,0.33-1.82c0.06-0.93,0.1-1.83,0.62-2.73c0.5-0.88,1.31-1.44,2.1-2		c0.61-0.43,1.22-0.86,1.52-1.37l0.08-0.1c0.36-0.42,0.55-1.07,0.75-1.7c0.26-0.88,0.52-1.77,1.24-2.51		c0.69-0.74,1.58-1.09,2.51-1.45c0.69-0.27,1.38-0.56,1.79-0.96l0.1-0.08c0.44-0.32,0.8-0.9,1.13-1.47		c0.46-0.81,0.93-1.58,1.77-2.16c0.84-0.56,1.81-0.71,2.78-0.84c0.75-0.11,1.46-0.23,1.96-0.51l0.11-0.06		C27.77,8.97,28.23,8.5,28.67,8c0.63-0.68,1.26-1.34,2.22-1.7c0.95-0.34,1.91-0.26,2.89-0.18c0.75,0.07,1.49,0.13,2.03-0.05		l0.13-0.02c0.55-0.1,1.11-0.46,1.65-0.82c0.77-0.51,1.53-1.01,2.56-1.14c1-0.11,1.91,0.19,2.86,0.5c0.71,0.23,1.4,0.48,2,0.42		l0.06,0.92L45.18,4.96L45.18,4.96z M47.61,6.25L47.61,6.25c-0.81,0.3-1.58,0.58-2.48,0.55c-0.92,0.05-1.77-0.23-2.61-0.51		c-0.75-0.24-1.47-0.49-2.08-0.42c-0.59,0.07-1.18,0.46-1.77,0.84c-0.71,0.48-1.39,0.93-2.29,1.09c-0.88,0.26-1.77,0.18-2.67,0.11		c-0.77-0.07-1.56-0.14-2.13,0.07c-0.55,0.2-1.05,0.73-1.51,1.24c-0.58,0.62-1.16,1.24-1.98,1.58c-0.81,0.46-1.69,0.58-2.57,0.73		c-0.77,0.11-1.55,0.23-2.04,0.56c-0.49,0.32-0.84,0.94-1.2,1.55c-0.42,0.74-0.84,1.45-1.57,2c-0.68,0.63-1.5,0.97-2.35,1.31		c-0.74,0.29-1.45,0.58-1.85,1.01c-0.42,0.43-0.61,1.11-0.81,1.78c-0.24,0.81-0.49,1.6-1.07,2.31c-0.5,0.76-1.25,1.3-1.97,1.81		c-0.64,0.44-1.28,0.9-1.57,1.43c-0.3,0.51-0.33,1.22-0.38,1.9c-0.05,0.86-0.1,1.71-0.51,2.53c-0.32,0.84-0.92,1.51-1.5,2.19		c-0.51,0.58-1.03,1.16-1.21,1.75c-0.17,0.57-0.05,1.26,0.08,1.96c0.15,0.83,0.3,1.66,0.08,2.56c-0.11,0.9-0.55,1.7-0.96,2.48		c-0.36,0.68-0.75,1.39-0.77,1.97c-0.04,0.59,0.24,1.25,0.52,1.89l0,0c0.33,0.77,0.68,1.55,0.68,2.46c0.1,0.92-0.13,1.77-0.36,2.65		c-0.21,0.75-0.4,1.51-0.3,2.1c0.1,0.58,0.52,1.15,0.95,1.71l0,0c0.5,0.68,1.01,1.34,1.22,2.22c0.31,0.88,0.29,1.77,0.26,2.67		c-0.02,0.77-0.05,1.56,0.21,2.12c0.23,0.55,0.77,1,1.32,1.45c0.65,0.55,1.3,1.08,1.7,1.89c0.5,0.76,0.68,1.64,0.88,2.54		c0.17,0.76,0.32,1.52,0.68,2.02c0.36,0.49,0.99,0.81,1.6,1.11c0.75,0.38,1.5,0.75,2.09,1.45c0.67,0.63,1.06,1.45,1.44,2.28		c0.33,0.71,0.67,1.41,1.14,1.79l0,0c0.46,0.38,1.14,0.55,1.82,0.71c0.82,0.19,1.64,0.39,2.37,0.94c0.81,0.46,1.35,1.18,1.9,1.88		c0.49,0.62,0.97,1.22,1.51,1.49c0.52,0.26,1.24,0.26,1.94,0.26c0.84,0,1.66,0,2.51,0.36c0.88,0.26,1.58,0.83,2.31,1.39		c0.62,0.49,1.24,0.97,1.81,1.11s1.26-0.02,1.95-0.19c0.82-0.19,1.64-0.39,2.56-0.23c0.92,0.06,1.71,0.43,2.54,0.81		c0.71,0.33,1.41,0.67,2.02,0.67c0.61,0,1.22-0.32,1.84-0.64l0,0c0.75-0.38,1.5-0.76,2.41-0.82c0.9-0.17,1.78,0.02,2.67,0.2		c0.76,0.17,1.52,0.31,2.12,0.17c0.58-0.14,1.13-0.59,1.64-1.05l0,0c0.65-0.55,1.32-1.11,2.2-1.37c0.83-0.34,1.71-0.38,2.61-0.4		c0.8-0.02,1.56-0.05,2.09-0.32c0.52-0.26,0.95-0.83,1.37-1.4c0.5-0.68,1.01-1.37,1.78-1.81c0.75-0.55,1.6-0.8,2.48-1.02l0,0		c0.75-0.2,1.5-0.42,1.96-0.81c0.44-0.38,0.74-1.02,1.01-1.66c0.33-0.77,0.68-1.55,1.32-2.18c0.59-0.69,1.38-1.13,2.18-1.56		c0.68-0.38,1.37-0.75,1.72-1.24c0.36-0.48,0.49-1.18,0.59-1.85c0.15-0.82,0.29-1.64,0.77-2.4c0.42-0.82,1.09-1.44,1.77-2.03		c0.58-0.52,1.16-1.06,1.39-1.58c0.23-0.55,0.19-1.25,0.15-1.95c-0.05-0.84-0.1-1.7,0.23-2.54c0.23-0.89,0.74-1.63,1.25-2.37		c0.44-0.64,0.89-1.3,1-1.88c0.1-0.58-0.1-1.26-0.31-1.94c-0.24-0.81-0.49-1.62-0.38-2.53c0-0.92,0.33-1.75,0.67-2.59		c0.29-0.74,0.57-1.45,0.55-2.06c-0.04-0.58-0.39-1.2-0.75-1.81c-0.42-0.74-0.84-1.45-0.96-2.37c-0.21-0.89-0.08-1.78,0.05-2.67		c0.11-0.77,0.23-1.55,0.05-2.13C82.48,33,82,32.49,81.51,31.99c-0.58-0.62-1.15-1.24-1.46-2.08c-0.42-0.82-0.49-1.71-0.57-2.62		c-0.07-0.77-0.14-1.56-0.44-2.08c-0.3-0.51-0.89-0.9-1.46-1.3c-0.71-0.48-1.39-0.93-1.9-1.66c-0.59-0.71-0.88-1.56-1.16-2.42		c-0.25-0.75-0.49-1.47-0.92-1.91c-0.4-0.43-1.07-0.68-1.72-0.92c-0.81-0.29-1.58-0.58-2.23-1.2c-0.74-0.55-1.21-1.33-1.69-2.08		c-0.42-0.67-0.82-1.33-1.32-1.65c-0.49-0.32-1.2-0.4-1.89-0.49c-0.83-0.1-1.65-0.19-2.46-0.65c-0.84-0.36-1.47-1.01-2.13-1.64		c-0.55-0.55-1.11-1.11-1.66-1.32c-0.55-0.2-1.26-0.11-1.96-0.04c-0.84,0.1-1.69,0.19-2.56-0.07c-0.9-0.17-1.65-0.64-2.42-1.11		c-0.67-0.42-1.32-0.82-1.91-0.89C48.95,5.77,48.28,6.02,47.61,6.25z"></path>	<path fill-rule="evenodd" clip-rule="evenodd" fill="#FFFFFF" d="M45.12,7.43c1.46,0.1,2.84-1.07,4.33-0.9c1.49,0.17,2.81,1.69,4.29,1.91c1.39,0.44,3.01-0.39,4.42,0.13		c1.4,0.51,2.35,2.29,3.74,2.88c1.26,0.75,3.02,0.32,4.27,1.14c1.26,0.83,1.75,2.77,2.97,3.66c1.07,1.02,2.86,1.01,3.91,2.09		c1.03,1.09,1.07,3.1,2.04,4.24c0.81,1.25,2.56,1.64,3.3,2.94s0.33,3.27,1.01,4.6c0.49,1.39,2.1,2.19,2.54,3.63		c0.43,1.45-0.43,3.26-0.07,4.7c0.15,1.46,1.55,2.62,1.64,4.11c0.08,1.5-1.18,3.07-1.15,4.56c-0.19,1.45,0.92,2.9,0.65,4.37		s-1.84,2.71-2.18,4.18c-0.52,1.39,0.23,3.03-0.39,4.41c-0.59,1.39-2.41,2.21-3.08,3.57c-0.83,1.22-0.49,3.01-1.38,4.21		c-0.9,1.21-2.86,1.58-3.83,2.76c-1.08,1.01-1.18,2.81-2.32,3.78c-1.15,0.97-3.16,0.89-4.35,1.79c-1.3,0.73-1.78,2.46-3.13,3.14		c-1.33,0.68-3.27,0.14-4.65,0.75c-1.41,0.4-2.29,1.97-3.77,2.32c-1.45,0.34-3.21-0.63-4.68-0.34c-1.46,0.07-2.7,1.4-4.18,1.4		c-1.5,0-2.98-1.34-4.48-1.41c-1.45-0.27-2.95,0.75-4.41,0.39c-1.45-0.36-2.6-2-4.03-2.41c-1.33-0.61-3.03,0.04-4.36-0.64		c-1.33-0.68-2.06-2.54-3.38-3.28c-1.18-0.9-2.96-0.67-4.1-1.63c-1.15-0.97-1.41-2.95-2.53-3.97c-0.94-1.14-2.73-1.33-3.63-2.54		c-0.9-1.21-0.71-3.2-1.53-4.45c-0.64-1.33-2.35-1.91-2.94-3.3c-0.59-1.39,0.06-3.28-0.49-4.67c-0.32-1.45-1.84-2.41-2.09-3.9		c-0.26-1.47,0.81-3.19,0.62-4.67c0.02-1.47-1.25-2.78-1.15-4.28c0.1-1.5,1.51-2.9,1.66-4.4c0.36-1.44-0.56-2.98-0.14-4.42		c0.43-1.45,2.14-2.48,2.64-3.9c0.68-1.32,0.14-3.04,0.89-4.34c0.75-1.31,2.65-1.9,3.47-3.19c0.97-1.13,0.83-2.94,1.87-4.03		c1.05-1.09,3.03-1.26,4.1-2.29c1.2-0.88,1.47-2.65,2.75-3.47c1.26-0.82,3.23-0.51,4.52-1.3c1.37-0.57,2.04-2.22,3.46-2.75		c1.4-0.51,3.27,0.24,4.69-0.2c1.45-0.24,2.52-1.7,4.01-1.88C41.98,6.39,43.62,7.55,45.12,7.43z"></path></g><rect y="34.51" fill="#302e2e" stroke="#000000" stroke-width="0.1" stroke-miterlimit="10" width="90" height="21"></rect><rect y="35.5" fill="#ffffff" width="90" height="1"></rect><rect y="53.5" fill="#ffffff" width="90" height="1"></rect><g>	<path fill="#302e2e" d="M25.45,71c-1.15,0-1.96-0.3-2.53-0.9C22.34,69.5,22,68.6,22,67.3l2.18-0.4c0,0.7,0.11,1.3,0.34,1.7		c0.23,0.4,0.46,0.6,0.92,0.6c0.34,0,0.46-0.1,0.58-0.3c0.11-0.2,0.23-0.4,0.23-0.7c0-0.5-0.12-0.8-0.34-1.2		c-0.23-0.3-0.58-0.7-1.03-1l-1.27-1.1c-0.34-0.3-0.57-0.5-0.81-0.8c-0.23-0.2-0.34-0.5-0.46-0.9S22,62.4,22,62		c0-1,0.34-1.7,0.92-2.2c0.58-0.5,1.38-0.8,2.42-0.8c0.34,0,0.69,0,0.92,0.1c0.23,0.1,0.57,0.2,0.69,0.3c0.11,0.1,0.34,0.3,0.57,0.4		c0.12,0.2,0.23,0.3,0.34,0.5c0.12,0.2,0.23,0.4,0.23,0.6s0.11,0.4,0.11,0.6c0,0.2,0,0.4,0.12,0.7l-2.07,0.3c0-0.2,0-0.4,0-0.6		c0-0.2,0-0.3-0.11-0.5c0-0.2-0.12-0.3-0.12-0.4c-0.11-0.1-0.11-0.2-0.23-0.2c-0.11,0-0.23-0.1-0.46-0.1s-0.46,0.1-0.57,0.3		c-0.12,0.2-0.23,0.4-0.23,0.7c0,0.2,0,0.4,0.11,0.6c0,0.2,0.12,0.3,0.23,0.5s0.23,0.3,0.34,0.4s0.23,0.2,0.46,0.4l1.27,1.1		c0.23,0.2,0.46,0.5,0.69,0.7c0.23,0.2,0.34,0.5,0.57,0.8c0.23,0.3,0.34,0.6,0.46,0.9c0.12,0.3,0.12,0.7,0.12,1.1		c0,0.8-0.34,1.6-0.92,2.1C27.06,70.7,26.37,71,25.45,71z"></path>	<path fill="#302e2e" d="M29.93,70.8V59.2h5.29v1.7h-2.76V64h2.19v1.7h-2.19v3.7h2.88V71L29.93,70.8L29.93,70.8L29.93,70.8z"></path>	<path fill="#302e2e" d="M40.06,71c-0.69,0-1.26-0.1-1.72-0.3c-0.46-0.2-0.81-0.5-1.15-0.8c-0.23-0.3-0.46-0.8-0.58-1.2s-0.23-1-0.23-1.6V63		c0-0.6,0-1.2,0.23-1.7c0.23-0.5,0.35-0.9,0.58-1.2c0.23-0.3,0.69-0.6,1.15-0.8c0.46-0.2,1.03-0.3,1.72-0.3		c0.58,0,1.15,0.1,1.61,0.2c0.46,0.2,0.81,0.4,1.04,0.7s0.46,0.7,0.58,1s0.23,0.8,0.23,1.4v1h-2.41v-1.1c0-0.1,0-0.2,0-0.3		s0-0.1,0-0.3c0-0.1,0-0.2,0-0.3c0,0,0-0.1,0-0.2c0-0.1,0-0.2-0.11-0.2s-0.11-0.1-0.11-0.2c0-0.1-0.12-0.1-0.23-0.1		c-0.11,0-0.11,0-0.23-0.1s-0.23,0-0.35,0c-0.23,0-0.34,0-0.46,0.1c-0.11,0.1-0.23,0.1-0.35,0.2c-0.11,0.1-0.11,0.2-0.23,0.4		c0,0.2,0,0.3-0.11,0.5c0,0.1,0,0.3,0,0.5v5.2c0,0.6,0.11,1,0.23,1.3c0.11,0.3,0.46,0.4,0.81,0.4c0.11,0,0.35,0,0.46-0.1		s0.23-0.1,0.23-0.2c0.11-0.1,0.11-0.2,0.23-0.3c0-0.1,0.11-0.2,0.11-0.3s0-0.3,0-0.4s0-0.3,0-0.4v-1.2h2.41v1c0,0.5,0,1-0.23,1.4		c-0.11,0.4-0.35,0.8-0.58,1.1s-0.58,0.6-1.03,0.8C41.32,70.9,40.74,71,40.06,71z"></path>	<path fill="#302e2e" d="M48.45,71c-0.69,0-1.26-0.1-1.73-0.3c-0.46-0.2-0.81-0.4-1.03-0.8c-0.23-0.3-0.46-0.8-0.58-1.2C45,68.2,45,67.7,45,67v-7.9		h2.41v8.2c0,0.2,0,0.4,0,0.6s0,0.3,0.11,0.5c0,0.2,0.12,0.3,0.23,0.4c0.11,0.1,0.23,0.2,0.34,0.3s0.35,0.1,0.46,0.1		c0.23,0,0.34,0,0.46-0.1c0.11-0.1,0.23-0.2,0.34-0.3c0.11-0.1,0.11-0.3,0.23-0.4c0-0.2,0.11-0.3,0.11-0.5c0-0.1,0-0.3,0-0.6v-8.2		h2.42V67c0,0.7,0,1.2-0.11,1.7s-0.35,0.9-0.58,1.2s-0.58,0.6-1.04,0.8C49.71,70.9,49.14,71,48.45,71z"></path>	<path fill="#302e2e" d="M53.85,70.8V59.2h3.11c0.69,0,1.15,0,1.61,0.1s0.92,0.3,1.26,0.5c0.34,0.2,0.58,0.5,0.81,1c0.23,0.4,0.23,0.9,0.23,1.5		c0,0.8-0.11,1.4-0.34,1.8c-0.23,0.5-0.58,0.8-1.15,1.1l1.73,5.7h-2.53l-1.38-5.3h-0.92v5.3L53.85,70.8		C53.85,70.9,53.85,70.8,53.85,70.8z M56.39,64.1h0.58c0.58,0,1.03-0.1,1.26-0.4c0.23-0.3,0.35-0.7,0.35-1.3s-0.11-1-0.35-1.3		c-0.23-0.3-0.57-0.4-1.15-0.4h-0.69C56.39,60.8,56.39,64.1,56.39,64.1z"></path>	<path fill="#302e2e" d="M62.71,70.8V59.2H68v1.7h-2.88V64h2.19v1.7h-2.19v3.7H68V71L62.71,70.8L62.71,70.8z"></path></g><polygon fill="#302e2e" points="45,12.5 46.5,17.5 51.5,17.5 47.4,20.5 49,25.5 45,22.3 41,25.5 42.6,20.5 38.5,17.5 43.5,17.5 "></polygon><polygon fill="#302e2e" points="61,21.5 62,25 65.5,25 62.7,27 63.8,30.5 61,28.3 58.2,30.5 59.3,27 56.5,25 60,25 "></polygon><polygon fill="#302e2e" points="29,21.5 30,25 33.5,25 30.7,27 31.8,30.5 29,28.3 26.2,30.5 27.3,27 24.5,25 28,25 "></polygon><g>	<path fill="#ffffff" d="M35.64,51c-1.52,0-2.66-0.3-3.41-0.9c-0.75-0.6-1.16-1.51-1.23-2.75l2.89-0.37c0.01,0.73,0.15,1.28,0.41,1.65		s0.66,0.55,1.2,0.55c0.39,0,0.67-0.09,0.85-0.27c0.17-0.18,0.26-0.41,0.26-0.69c0-0.46-0.14-0.85-0.42-1.16		c-0.28-0.31-0.73-0.66-1.35-1.05l-1.76-1.09c-0.45-0.28-0.81-0.54-1.08-0.78c-0.27-0.24-0.51-0.55-0.69-0.92		c-0.19-0.37-0.28-0.79-0.28-1.25c0-0.95,0.39-1.68,1.18-2.2c0.79-0.52,1.86-0.78,3.24-0.79c0.46,0,0.88,0.03,1.27,0.1		c0.38,0.07,0.71,0.16,0.98,0.27c0.27,0.11,0.52,0.25,0.73,0.42c0.21,0.17,0.38,0.34,0.51,0.53c0.13,0.18,0.24,0.39,0.34,0.61		c0.09,0.23,0.16,0.44,0.2,0.65c0.04,0.2,0.07,0.43,0.09,0.67l-2.87,0.32c-0.01-0.24-0.03-0.44-0.05-0.6		c-0.02-0.16-0.06-0.33-0.11-0.5c-0.06-0.17-0.13-0.31-0.22-0.4c-0.09-0.1-0.22-0.18-0.38-0.24s-0.35-0.09-0.56-0.08		c-0.37,0.01-0.66,0.12-0.86,0.3c-0.2,0.19-0.3,0.42-0.3,0.68c0,0.21,0.03,0.4,0.1,0.57s0.18,0.34,0.34,0.49		c0.16,0.16,0.3,0.28,0.43,0.37c0.13,0.09,0.32,0.22,0.56,0.38l1.73,1.07c0.37,0.24,0.69,0.46,0.97,0.68		c0.27,0.22,0.53,0.47,0.78,0.75s0.43,0.59,0.56,0.93c0.13,0.34,0.19,0.7,0.19,1.08c0,0.85-0.39,1.55-1.16,2.1		C37.92,50.73,36.9,51,35.64,51z"></path>	<path fill="#ffffff" d="M45.87,51c-1.52,0-2.66-0.3-3.41-0.9c-0.75-0.6-1.16-1.51-1.23-2.75l2.89-0.37c0.01,0.73,0.15,1.28,0.41,1.65		s0.66,0.55,1.2,0.55c0.39,0,0.67-0.09,0.85-0.27s0.26-0.41,0.26-0.69c0-0.46-0.14-0.85-0.42-1.16c-0.28-0.31-0.73-0.66-1.35-1.05		l-1.76-1.09c-0.45-0.28-0.81-0.54-1.08-0.78c-0.27-0.24-0.51-0.55-0.69-0.92c-0.19-0.37-0.28-0.79-0.28-1.25		c0-0.95,0.39-1.68,1.18-2.2c0.79-0.52,1.86-0.78,3.24-0.79c0.46,0,0.88,0.03,1.27,0.1c0.38,0.07,0.71,0.16,0.99,0.27		c0.27,0.11,0.52,0.25,0.73,0.42c0.21,0.17,0.38,0.34,0.51,0.53c0.13,0.18,0.24,0.39,0.34,0.61c0.09,0.23,0.16,0.44,0.2,0.65		c0.04,0.2,0.07,0.43,0.09,0.67l-2.87,0.32c-0.01-0.24-0.03-0.44-0.05-0.6c-0.02-0.16-0.06-0.33-0.11-0.5		c-0.06-0.17-0.13-0.31-0.22-0.4c-0.09-0.1-0.22-0.18-0.37-0.24c-0.16-0.06-0.35-0.09-0.56-0.08c-0.37,0.01-0.66,0.12-0.86,0.3		c-0.2,0.19-0.3,0.42-0.3,0.68c0,0.21,0.03,0.4,0.1,0.57s0.18,0.34,0.34,0.49c0.16,0.16,0.3,0.28,0.43,0.37		c0.13,0.09,0.32,0.22,0.56,0.38l1.73,1.07c0.37,0.24,0.69,0.46,0.97,0.68s0.53,0.47,0.78,0.75s0.43,0.59,0.56,0.93		s0.19,0.7,0.19,1.08c0,0.85-0.39,1.55-1.16,2.1C48.14,50.73,47.13,51,45.87,51z"></path>	<path fill="#ffffff" d="M51.83,50.84v-11.7h3.34v10.07H59v1.62H51.83z"></path></g></svg>