<svg width="14" height="14" viewBox="0 0 14 14" fill="none" aria-hidden="true" xmlns="http://www.w3.org/2000/svg">
                              <path d="M7.00008 13.2708C3.54091 13.2708 0.729248 10.4591 0.729248 6.99996C0.729248 3.54079 3.54091 0.729126 7.00008 0.729126C10.4592 0.729126 13.2709 3.54079 13.2709 6.99996C13.2709 10.4591 10.4592 13.2708 7.00008 13.2708ZM7.00008 1.60413C4.02508 1.60413 1.60425 4.02496 1.60425 6.99996C1.60425 9.97496 4.02508 12.3958 7.00008 12.3958C9.97508 12.3958 12.3959 9.97496 12.3959 6.99996C12.3959 4.02496 9.97508 1.60413 7.00008 1.60413Z" fill="#00CA8D"></path>
                              <path d="M6.17159 9.08839C6.05493 9.08839 5.94409 9.04172 5.86243 8.96006L4.21159 7.30922C4.04243 7.14006 4.04243 6.86006 4.21159 6.69089C4.38076 6.52172 4.66076 6.52172 4.82993 6.69089L6.17159 8.03256L9.16993 5.03422C9.33909 4.86506 9.61909 4.86506 9.78826 5.03422C9.95743 5.20339 9.95743 5.48339 9.78826 5.65256L6.48076 8.96006C6.39909 9.04172 6.28826 9.08839 6.17159 9.08839Z" fill="#00CA8D"></path>
                           </svg>